<?xml version="1.0" encoding="UTF-8" standalone="no"?>
<!DOCTYPE svg PUBLIC "-//W3C//DTD SVG 1.1//EN" "http://www.w3.org/Graphics/SVG/1.1/DTD/svg11.dtd">
<!-- Generated by Microsoft Visio, SVG Export PEMBUATAN AKTA KELAHIRAN.svg Page-1 -->
<svg xmlns="http://www.w3.org/2000/svg" xmlns:xlink="http://www.w3.org/1999/xlink" xmlns:ev="http://www.w3.org/2001/xml-events"
		xmlns:v="http://schemas.microsoft.com/visio/2003/SVGExtensions/" width="11in" height="8.5in" viewBox="0 0 792 612"
		xml:space="preserve" color-interpolation-filters="sRGB" class="st8">
	<v:documentProperties v:langID="1033" v:viewMarkup="false">
		<v:userDefs>
			<v:ud v:nameU="msvSubprocessMaster" v:prompt="" v:val="VT4(Rectangle)"/>
			<v:ud v:nameU="msvNoAutoConnect" v:val="VT0(1):26"/>
		</v:userDefs>
	</v:documentProperties>

	<style type="text/css">
	<![CDATA[
		.st1 {fill:none;stroke:none;stroke-width:0.25}
		.st2 {fill:#000000;font-family:Lucida Sans;font-size:1.99999em;font-style:italic;font-weight:bold}
		.st3 {fill:#386288;stroke:#2d5171;stroke-width:0.75}
		.st4 {fill:#feffff;font-family:Lucida Sans;font-size:1.00001em;font-weight:bold}
		.st5 {font-size:1em}
		.st6 {marker-end:url(#mrkr4-55);stroke:#41719c;stroke-linecap:round;stroke-linejoin:round;stroke-width:1}
		.st7 {fill:#41719c;fill-opacity:1;stroke:#41719c;stroke-opacity:1;stroke-width:0.28409090909091}
		.st8 {fill:none;fill-rule:evenodd;font-size:12px;overflow:visible;stroke-linecap:square;stroke-miterlimit:3}
	]]>
	</style>

	<defs id="Markers">
		<g id="lend4">
			<path d="M 2 1 L 0 0 L 2 -1 L 2 1 " style="stroke:none"/>
		</g>
		<marker id="mrkr4-55" class="st7" v:arrowType="4" v:arrowSize="2" v:setback="7.04" refX="-7.04" orient="auto"
				markerUnits="strokeWidth" overflow="visible">
			<use xlink:href="#lend4" transform="scale(-3.52,-3.52) "/>
		</marker>
	</defs>
	<g v:mID="0" v:index="1" v:groupContext="foregroundPage">
		<v:userDefs>
			<v:ud v:nameU="msvThemeOrder" v:val="VT0(0):26"/>
		</v:userDefs>
		<title>Page-1</title>
		<v:pageProperties v:drawingScale="1" v:pageScale="1" v:drawingUnits="0" v:shadowOffsetX="9" v:shadowOffsetY="-9"/>
		<v:layer v:name="Connector" v:index="0"/>
		<g id="group27-1" transform="translate(54,-98)" v:mID="27" v:groupContext="group">
			<title>Sheet.27</title>
			<g id="shape23-2" v:mID="23" v:groupContext="shape" transform="translate(113,-440)">
				<title>Sheet.23</title>
				<desc>PEMBUATAN AKTE KELAHIRAN</desc>
				<v:textBlock v:margins="rect(4,4,4,4)" v:verticalAlign="2"/>
				<v:textRect cx="229" cy="602" width="458" height="20"/>
				<rect x="0" y="592" width="458" height="20" class="st1"/>
				<text x="40.94" y="600.8" class="st2" v:langID="1033"><v:paragraph v:horizAlign="1"/><v:tabList/>PEMBUATAN AKTE KELAHIRAN</text>			</g>
			<g id="group25-5" v:mID="25" v:groupContext="group">
				<title>Sheet.25</title>
				<g id="shape1-6" v:mID="1" v:groupContext="shape" transform="translate(225,-99)">
					<title>Rounded Rectangle</title>
					<desc>Proses Akhir</desc>
					<v:userDefs>
						<v:ud v:nameU="CTypeTopLeftSnip" v:prompt="" v:val="VT0(0):5"/>
						<v:ud v:nameU="CTypeTopRightSnip" v:prompt="" v:val="VT0(0):5"/>
						<v:ud v:nameU="CTypeBotLeftSnip" v:prompt="" v:val="VT0(0):5"/>
						<v:ud v:nameU="CTypeBotRightSnip" v:prompt="" v:val="VT0(0):5"/>
						<v:ud v:nameU="CornerLockHoriz" v:prompt="" v:val="VT0(1):5"/>
						<v:ud v:nameU="CornerLockVert" v:prompt="" v:val="VT0(1):5"/>
						<v:ud v:nameU="CornerLockDiag" v:prompt="" v:val="VT0(0):5"/>
						<v:ud v:nameU="TopLeftOffset" v:prompt="" v:val="VT0(0.15):1"/>
						<v:ud v:nameU="TopRightOffset" v:prompt="" v:val="VT0(0.15):1"/>
						<v:ud v:nameU="BotLeftOffset" v:prompt="" v:val="VT0(0.15):1"/>
						<v:ud v:nameU="BotRightOffset" v:prompt="" v:val="VT0(0.15):1"/>
						<v:ud v:nameU="visVersion" v:prompt="" v:val="VT0(15):26"/>
					</v:userDefs>
					<v:textBlock v:margins="rect(4,4,4,4)"/>
					<v:textRect cx="54" cy="576" width="108" height="72"/>
					<path d="M10.8 612 L97.2 612 A10.7998 10.7998 -180 0 0 108 601.2 L108 550.8 A10.7998 10.7998 -180 0 0 97.2 540
								 L10.8 540 A10.7998 10.7998 -180 0 0 0 550.8 L0 601.2 A10.7998 10.7998 -180 0 0 10.8 612 Z"
							class="st3"/>
					<text x="14.71" y="579.6" class="st4" v:langID="1033"><v:paragraph v:horizAlign="1"/><v:tabList/>Proses Akhir</text>				</g>
				<g id="shape2-9" v:mID="2" v:groupContext="shape" transform="translate(495,-99)">
					<title>Rounded Rectangle.2</title>
					<desc>Pemaparan</desc>
					<v:userDefs>
						<v:ud v:nameU="CTypeTopLeftSnip" v:prompt="" v:val="VT0(0):5"/>
						<v:ud v:nameU="CTypeTopRightSnip" v:prompt="" v:val="VT0(0):5"/>
						<v:ud v:nameU="CTypeBotLeftSnip" v:prompt="" v:val="VT0(0):5"/>
						<v:ud v:nameU="CTypeBotRightSnip" v:prompt="" v:val="VT0(0):5"/>
						<v:ud v:nameU="CornerLockHoriz" v:prompt="" v:val="VT0(1):5"/>
						<v:ud v:nameU="CornerLockVert" v:prompt="" v:val="VT0(1):5"/>
						<v:ud v:nameU="CornerLockDiag" v:prompt="" v:val="VT0(0):5"/>
						<v:ud v:nameU="TopLeftOffset" v:prompt="" v:val="VT0(0.15):1"/>
						<v:ud v:nameU="TopRightOffset" v:prompt="" v:val="VT0(0.15):1"/>
						<v:ud v:nameU="BotLeftOffset" v:prompt="" v:val="VT0(0.15):1"/>
						<v:ud v:nameU="BotRightOffset" v:prompt="" v:val="VT0(0.15):1"/>
						<v:ud v:nameU="visVersion" v:prompt="" v:val="VT0(15):26"/>
					</v:userDefs>
					<v:textBlock v:margins="rect(4,4,4,4)"/>
					<v:textRect cx="54" cy="576" width="108" height="72"/>
					<path d="M10.8 612 L97.2 612 A10.7998 10.7998 -180 0 0 108 601.2 L108 550.8 A10.7998 10.7998 -180 0 0 97.2 540
								 L10.8 540 A10.7998 10.7998 -180 0 0 0 550.8 L0 601.2 A10.7998 10.7998 -180 0 0 10.8 612 Z"
							class="st3"/>
					<text x="19.76" y="579.6" class="st4" v:langID="1033"><v:paragraph v:horizAlign="1"/><v:tabList/>Pemaparan</text>				</g>
				<g id="shape3-12" v:mID="3" v:groupContext="shape" transform="translate(495,-198)">
					<title>Rounded Rectangle.3</title>
					<desc>Koreksi</desc>
					<v:userDefs>
						<v:ud v:nameU="CTypeTopLeftSnip" v:prompt="" v:val="VT0(0):5"/>
						<v:ud v:nameU="CTypeTopRightSnip" v:prompt="" v:val="VT0(0):5"/>
						<v:ud v:nameU="CTypeBotLeftSnip" v:prompt="" v:val="VT0(0):5"/>
						<v:ud v:nameU="CTypeBotRightSnip" v:prompt="" v:val="VT0(0):5"/>
						<v:ud v:nameU="CornerLockHoriz" v:prompt="" v:val="VT0(1):5"/>
						<v:ud v:nameU="CornerLockVert" v:prompt="" v:val="VT0(1):5"/>
						<v:ud v:nameU="CornerLockDiag" v:prompt="" v:val="VT0(0):5"/>
						<v:ud v:nameU="TopLeftOffset" v:prompt="" v:val="VT0(0.15):1"/>
						<v:ud v:nameU="TopRightOffset" v:prompt="" v:val="VT0(0.15):1"/>
						<v:ud v:nameU="BotLeftOffset" v:prompt="" v:val="VT0(0.15):1"/>
						<v:ud v:nameU="BotRightOffset" v:prompt="" v:val="VT0(0.15):1"/>
						<v:ud v:nameU="visVersion" v:prompt="" v:val="VT0(15):26"/>
					</v:userDefs>
					<v:textBlock v:margins="rect(4,4,4,4)"/>
					<v:textRect cx="54" cy="576" width="108" height="72"/>
					<path d="M10.8 612 L97.2 612 A10.7998 10.7998 -180 0 0 108 601.2 L108 550.8 A10.7998 10.7998 -180 0 0 97.2 540
								 L10.8 540 A10.7998 10.7998 -180 0 0 0 550.8 L0 601.2 A10.7998 10.7998 -180 0 0 10.8 612 Z"
							class="st3"/>
					<text x="30.52" y="579.6" class="st4" v:langID="1033"><v:paragraph v:horizAlign="1"/><v:tabList/>Koreksi</text>				</g>
				<g id="shape4-15" v:mID="4" v:groupContext="shape" transform="translate(189,-297)">
					<title>Rounded Rectangle.4</title>
					<desc>Loket Pelayanan</desc>
					<v:userDefs>
						<v:ud v:nameU="CTypeTopLeftSnip" v:prompt="" v:val="VT0(0):5"/>
						<v:ud v:nameU="CTypeTopRightSnip" v:prompt="" v:val="VT0(0):5"/>
						<v:ud v:nameU="CTypeBotLeftSnip" v:prompt="" v:val="VT0(0):5"/>
						<v:ud v:nameU="CTypeBotRightSnip" v:prompt="" v:val="VT0(0):5"/>
						<v:ud v:nameU="CornerLockHoriz" v:prompt="" v:val="VT0(1):5"/>
						<v:ud v:nameU="CornerLockVert" v:prompt="" v:val="VT0(1):5"/>
						<v:ud v:nameU="CornerLockDiag" v:prompt="" v:val="VT0(0):5"/>
						<v:ud v:nameU="TopLeftOffset" v:prompt="" v:val="VT0(0.15):1"/>
						<v:ud v:nameU="TopRightOffset" v:prompt="" v:val="VT0(0.15):1"/>
						<v:ud v:nameU="BotLeftOffset" v:prompt="" v:val="VT0(0.15):1"/>
						<v:ud v:nameU="BotRightOffset" v:prompt="" v:val="VT0(0.15):1"/>
						<v:ud v:nameU="visVersion" v:prompt="" v:val="VT0(15):26"/>
					</v:userDefs>
					<v:textBlock v:margins="rect(4,4,4,4)"/>
					<v:textRect cx="54" cy="576" width="108" height="72"/>
					<path d="M10.8 612 L97.2 612 A10.7998 10.7998 -180 0 0 108 601.2 L108 550.8 A10.7998 10.7998 -180 0 0 97.2 540
								 L10.8 540 A10.7998 10.7998 -180 0 0 0 550.8 L0 601.2 A10.7998 10.7998 -180 0 0 10.8 612 Z"
							class="st3"/>
					<text x="36.93" y="572.4" class="st4" v:langID="1033"><v:paragraph v:horizAlign="1"/><v:tabList/>Loket <tspan
								x="22.89" dy="1.2em" class="st5">Pelayanan</tspan></text>				</g>
				<g id="shape5-19" v:mID="5" v:groupContext="shape" transform="translate(0,-279)">
					<title>Rounded Rectangle.5</title>
					<desc>Pemohon Membawa Persyaratan Pembuatan Akta Kelahiran</desc>
					<v:userDefs>
						<v:ud v:nameU="CTypeTopLeftSnip" v:prompt="" v:val="VT0(0):5"/>
						<v:ud v:nameU="CTypeTopRightSnip" v:prompt="" v:val="VT0(0):5"/>
						<v:ud v:nameU="CTypeBotLeftSnip" v:prompt="" v:val="VT0(0):5"/>
						<v:ud v:nameU="CTypeBotRightSnip" v:prompt="" v:val="VT0(0):5"/>
						<v:ud v:nameU="CornerLockHoriz" v:prompt="" v:val="VT0(1):5"/>
						<v:ud v:nameU="CornerLockVert" v:prompt="" v:val="VT0(1):5"/>
						<v:ud v:nameU="CornerLockDiag" v:prompt="" v:val="VT0(0):5"/>
						<v:ud v:nameU="TopLeftOffset" v:prompt="" v:val="VT0(0.15):1"/>
						<v:ud v:nameU="TopRightOffset" v:prompt="" v:val="VT0(0.15):1"/>
						<v:ud v:nameU="BotLeftOffset" v:prompt="" v:val="VT0(0.15):1"/>
						<v:ud v:nameU="BotRightOffset" v:prompt="" v:val="VT0(0.15):1"/>
						<v:ud v:nameU="visVersion" v:prompt="" v:val="VT0(15):26"/>
						<v:ud v:nameU="TopLeftOffset" v:prompt="" v:val="VT0(0.22499999719508):1"/>
						<v:ud v:nameU="TopRightOffset" v:prompt="" v:val="VT0(0.22499999719508):1"/>
						<v:ud v:nameU="BotLeftOffset" v:prompt="" v:val="VT0(0.22499999719508):1"/>
						<v:ud v:nameU="BotRightOffset" v:prompt="" v:val="VT0(0.22499999719508):1"/>
					</v:userDefs>
					<v:textBlock v:margins="rect(4,4,4,4)"/>
					<v:textRect cx="81" cy="558" width="162" height="108"/>
					<path d="M16.2 612 L145.8 612 A16.1997 16.1997 -180 0 0 162 595.8 L162 520.2 A16.1997 16.1997 -180 0 0 145.8
								 504 L16.2 504 A16.1997 16.1997 -180 0 0 0 520.2 L0 595.8 A16.1997 16.1997 -180 0 0 16.2 612 Z"
							class="st3"/>
					<text x="19.54" y="547.2" class="st4" v:langID="1033"><v:paragraph v:horizAlign="1"/><v:tabList/>Pemohon Membawa <tspan
								x="8.23" dy="1.2em" class="st5">Persyaratan Pembuatan </tspan><tspan x="35.57" dy="1.2em"
								class="st5">Akta Kelahiran</tspan></text>				</g>
				<g id="shape6-24" v:mID="6" v:groupContext="shape" transform="translate(324,-297)">
					<title>Rounded Rectangle.6</title>
					<desc>Membayar Retribusi</desc>
					<v:userDefs>
						<v:ud v:nameU="CTypeTopLeftSnip" v:prompt="" v:val="VT0(0):5"/>
						<v:ud v:nameU="CTypeTopRightSnip" v:prompt="" v:val="VT0(0):5"/>
						<v:ud v:nameU="CTypeBotLeftSnip" v:prompt="" v:val="VT0(0):5"/>
						<v:ud v:nameU="CTypeBotRightSnip" v:prompt="" v:val="VT0(0):5"/>
						<v:ud v:nameU="CornerLockHoriz" v:prompt="" v:val="VT0(1):5"/>
						<v:ud v:nameU="CornerLockVert" v:prompt="" v:val="VT0(1):5"/>
						<v:ud v:nameU="CornerLockDiag" v:prompt="" v:val="VT0(0):5"/>
						<v:ud v:nameU="TopLeftOffset" v:prompt="" v:val="VT0(0.15):1"/>
						<v:ud v:nameU="TopRightOffset" v:prompt="" v:val="VT0(0.15):1"/>
						<v:ud v:nameU="BotLeftOffset" v:prompt="" v:val="VT0(0.15):1"/>
						<v:ud v:nameU="BotRightOffset" v:prompt="" v:val="VT0(0.15):1"/>
						<v:ud v:nameU="visVersion" v:prompt="" v:val="VT0(15):26"/>
					</v:userDefs>
					<v:textBlock v:margins="rect(4,4,4,4)"/>
					<v:textRect cx="54" cy="576" width="108" height="72"/>
					<path d="M10.8 612 L97.2 612 A10.7998 10.7998 -180 0 0 108 601.2 L108 550.8 A10.7998 10.7998 -180 0 0 97.2 540
								 L10.8 540 A10.7998 10.7998 -180 0 0 0 550.8 L0 601.2 A10.7998 10.7998 -180 0 0 10.8 612 Z"
							class="st3"/>
					<text x="21.96" y="572.4" class="st4" v:langID="1033"><v:paragraph v:horizAlign="1"/><v:tabList/>Membayar <tspan
								x="25.97" dy="1.2em" class="st5">Retribusi</tspan></text>				</g>
				<g id="shape7-28" v:mID="7" v:groupContext="shape" transform="translate(225,0)">
					<title>Rounded Rectangle.7</title>
					<desc>Pengarsipan Berkas dan Buku Registrasi</desc>
					<v:userDefs>
						<v:ud v:nameU="CTypeTopLeftSnip" v:prompt="" v:val="VT0(0):5"/>
						<v:ud v:nameU="CTypeTopRightSnip" v:prompt="" v:val="VT0(0):5"/>
						<v:ud v:nameU="CTypeBotLeftSnip" v:prompt="" v:val="VT0(0):5"/>
						<v:ud v:nameU="CTypeBotRightSnip" v:prompt="" v:val="VT0(0):5"/>
						<v:ud v:nameU="CornerLockHoriz" v:prompt="" v:val="VT0(1):5"/>
						<v:ud v:nameU="CornerLockVert" v:prompt="" v:val="VT0(1):5"/>
						<v:ud v:nameU="CornerLockDiag" v:prompt="" v:val="VT0(0):5"/>
						<v:ud v:nameU="TopLeftOffset" v:prompt="" v:val="VT0(0.15):1"/>
						<v:ud v:nameU="TopRightOffset" v:prompt="" v:val="VT0(0.15):1"/>
						<v:ud v:nameU="BotLeftOffset" v:prompt="" v:val="VT0(0.15):1"/>
						<v:ud v:nameU="BotRightOffset" v:prompt="" v:val="VT0(0.15):1"/>
						<v:ud v:nameU="visVersion" v:prompt="" v:val="VT0(15):26"/>
					</v:userDefs>
					<v:textBlock v:margins="rect(4,4,4,4)"/>
					<v:textRect cx="54" cy="576" width="108" height="72"/>
					<path d="M10.8 612 L97.2 612 A10.7998 10.7998 -180 0 0 108 601.2 L108 550.8 A10.7998 10.7998 -180 0 0 97.2 540
								 L10.8 540 A10.7998 10.7998 -180 0 0 0 550.8 L0 601.2 A10.7998 10.7998 -180 0 0 10.8 612 Z"
							class="st3"/>
					<text x="15.86" y="565.2" class="st4" v:langID="1033"><v:paragraph v:horizAlign="1"/><v:tabList/>Pengarsipan <tspan
								x="19.9" dy="1.2em" class="st5">Berkas dan </tspan><tspan x="5.64" dy="1.2em" class="st5">Buku Registrasi</tspan></text>				</g>
				<g id="shape8-33" v:mID="8" v:groupContext="shape" transform="translate(360,-99)">
					<title>Rounded Rectangle.8</title>
					<desc>Penanda Tanganan oleh Kepala DISDUKCAPIL</desc>
					<v:userDefs>
						<v:ud v:nameU="CTypeTopLeftSnip" v:prompt="" v:val="VT0(0):5"/>
						<v:ud v:nameU="CTypeTopRightSnip" v:prompt="" v:val="VT0(0):5"/>
						<v:ud v:nameU="CTypeBotLeftSnip" v:prompt="" v:val="VT0(0):5"/>
						<v:ud v:nameU="CTypeBotRightSnip" v:prompt="" v:val="VT0(0):5"/>
						<v:ud v:nameU="CornerLockHoriz" v:prompt="" v:val="VT0(1):5"/>
						<v:ud v:nameU="CornerLockVert" v:prompt="" v:val="VT0(1):5"/>
						<v:ud v:nameU="CornerLockDiag" v:prompt="" v:val="VT0(0):5"/>
						<v:ud v:nameU="TopLeftOffset" v:prompt="" v:val="VT0(0.15):1"/>
						<v:ud v:nameU="TopRightOffset" v:prompt="" v:val="VT0(0.15):1"/>
						<v:ud v:nameU="BotLeftOffset" v:prompt="" v:val="VT0(0.15):1"/>
						<v:ud v:nameU="BotRightOffset" v:prompt="" v:val="VT0(0.15):1"/>
						<v:ud v:nameU="visVersion" v:prompt="" v:val="VT0(15):26"/>
					</v:userDefs>
					<v:textBlock v:margins="rect(4,4,4,4)"/>
					<v:textRect cx="54" cy="576" width="108" height="72"/>
					<path d="M10.8 612 L97.2 612 A10.7998 10.7998 -180 0 0 108 601.2 L108 550.8 A10.7998 10.7998 -180 0 0 97.2 540
								 L10.8 540 A10.7998 10.7998 -180 0 0 0 550.8 L0 601.2 A10.7998 10.7998 -180 0 0 10.8 612 Z"
							class="st3"/>
					<text x="27.89" y="558" class="st4" v:langID="1033"><v:paragraph v:horizAlign="1"/><v:tabList/>Penanda <tspan
								x="8.34" dy="1.2em" class="st5">Tanganan oleh </tspan><tspan x="33.24" dy="1.2em" class="st5">Kepala </tspan><tspan
								x="12.54" dy="1.2em" class="st5">DISDUKCAPIL</tspan></text>				</g>
				<g id="shape9-39" v:mID="9" v:groupContext="shape" transform="translate(90,-99)">
					<title>Rounded Rectangle.9</title>
					<desc>Akta Diserahkan Ke Pemohon</desc>
					<v:userDefs>
						<v:ud v:nameU="CTypeTopLeftSnip" v:prompt="" v:val="VT0(0):5"/>
						<v:ud v:nameU="CTypeTopRightSnip" v:prompt="" v:val="VT0(0):5"/>
						<v:ud v:nameU="CTypeBotLeftSnip" v:prompt="" v:val="VT0(0):5"/>
						<v:ud v:nameU="CTypeBotRightSnip" v:prompt="" v:val="VT0(0):5"/>
						<v:ud v:nameU="CornerLockHoriz" v:prompt="" v:val="VT0(1):5"/>
						<v:ud v:nameU="CornerLockVert" v:prompt="" v:val="VT0(1):5"/>
						<v:ud v:nameU="CornerLockDiag" v:prompt="" v:val="VT0(0):5"/>
						<v:ud v:nameU="TopLeftOffset" v:prompt="" v:val="VT0(0.15):1"/>
						<v:ud v:nameU="TopRightOffset" v:prompt="" v:val="VT0(0.15):1"/>
						<v:ud v:nameU="BotLeftOffset" v:prompt="" v:val="VT0(0.15):1"/>
						<v:ud v:nameU="BotRightOffset" v:prompt="" v:val="VT0(0.15):1"/>
						<v:ud v:nameU="visVersion" v:prompt="" v:val="VT0(15):26"/>
					</v:userDefs>
					<v:textBlock v:margins="rect(4,4,4,4)"/>
					<v:textRect cx="54" cy="576" width="108" height="72"/>
					<path d="M10.8 612 L97.2 612 A10.7998 10.7998 -180 0 0 108 601.2 L108 550.8 A10.7998 10.7998 -180 0 0 97.2 540
								 L10.8 540 A10.7998 10.7998 -180 0 0 0 550.8 L0 601.2 A10.7998 10.7998 -180 0 0 10.8 612 Z"
							class="st3"/>
					<text x="39.83" y="565.2" class="st4" v:langID="1033"><v:paragraph v:horizAlign="1"/><v:tabList/>Akta <tspan
								x="9.23" dy="1.2em" class="st5">Diserahkan Ke </tspan><tspan x="25.44" dy="1.2em" class="st5">Pemohon</tspan></text>				</g>
				<g id="shape10-44" v:mID="10" v:groupContext="shape" transform="translate(324,-198)">
					<title>Rounded Rectangle.10</title>
					<desc>-Penelitian berkas -Penulisan Buku -Register -Percetakan</desc>
					<v:userDefs>
						<v:ud v:nameU="CTypeTopLeftSnip" v:prompt="" v:val="VT0(0):5"/>
						<v:ud v:nameU="CTypeTopRightSnip" v:prompt="" v:val="VT0(0):5"/>
						<v:ud v:nameU="CTypeBotLeftSnip" v:prompt="" v:val="VT0(0):5"/>
						<v:ud v:nameU="CTypeBotRightSnip" v:prompt="" v:val="VT0(0):5"/>
						<v:ud v:nameU="CornerLockHoriz" v:prompt="" v:val="VT0(1):5"/>
						<v:ud v:nameU="CornerLockVert" v:prompt="" v:val="VT0(1):5"/>
						<v:ud v:nameU="CornerLockDiag" v:prompt="" v:val="VT0(0):5"/>
						<v:ud v:nameU="TopLeftOffset" v:prompt="" v:val="VT0(0.15):1"/>
						<v:ud v:nameU="TopRightOffset" v:prompt="" v:val="VT0(0.15):1"/>
						<v:ud v:nameU="BotLeftOffset" v:prompt="" v:val="VT0(0.15):1"/>
						<v:ud v:nameU="BotRightOffset" v:prompt="" v:val="VT0(0.15):1"/>
						<v:ud v:nameU="visVersion" v:prompt="" v:val="VT0(15):26"/>
						<v:ud v:nameU="TopLeftOffset" v:prompt="" v:val="VT0(0.20000001823201):1"/>
						<v:ud v:nameU="TopRightOffset" v:prompt="" v:val="VT0(0.20000001823201):1"/>
						<v:ud v:nameU="BotLeftOffset" v:prompt="" v:val="VT0(0.20000001823201):1"/>
						<v:ud v:nameU="BotRightOffset" v:prompt="" v:val="VT0(0.20000001823201):1"/>
					</v:userDefs>
					<v:textBlock v:margins="rect(4,4,4,4)"/>
					<v:textRect cx="72" cy="576" width="144.01" height="72"/>
					<path d="M14.4 612 L129.6 612 A14.3998 14.3998 -180 0 0 144 597.6 L144 554.4 A14.3998 14.3998 -180 0 0 129.6
								 540 L14.4 540 A14.3998 14.3998 -180 0 0 0 554.4 L0 597.6 A14.3998 14.3998 -180 0 0 14.4 612 Z"
							class="st3"/>
					<text x="4" y="558" class="st4" v:langID="1033"><v:paragraph/><v:tabList/>-Penelitian berkas<v:newlineChar/><tspan
								x="4" dy="1.2em" class="st5">-</tspan>Penulisan Buku<v:newlineChar/><tspan x="4" dy="1.2em"
								class="st5">-</tspan>Register<v:newlineChar/><tspan x="4" dy="1.2em" class="st5">-</tspan>Percetakan</text>				</g>
				<g id="shape11-50" v:mID="11" v:groupContext="shape" v:layerMember="0" transform="translate(162,-324)">
					<title>Dynamic connector</title>
					<path d="M0 603 L19.96 603" class="st6"/>
				</g>
				<g id="shape12-56" v:mID="12" v:groupContext="shape" v:layerMember="0" transform="translate(297,-324)">
					<title>Dynamic connector.12</title>
					<path d="M0 603 L19.96 603" class="st6"/>
				</g>
				<g id="shape13-61" v:mID="13" v:groupContext="shape" v:layerMember="0" transform="translate(297,-333)">
					<title>Dynamic connector.13</title>
					<path d="M0 612 L13.5 612 L13.5 679.22 L24.18 679.22" class="st6"/>
				</g>
				<g id="shape15-66" v:mID="15" v:groupContext="shape" v:layerMember="0" transform="translate(468,-234)">
					<title>Dynamic connector.15</title>
					<path d="M0 612 L18 612 L18 567 L81 567 L81 568.96" class="st6"/>
				</g>
				<g id="shape17-71" v:mID="17" v:groupContext="shape" v:layerMember="0" transform="translate(495,-126)">
					<title>Dynamic connector.17</title>
					<path d="M0 603 L-19.96 603" class="st6"/>
				</g>
				<g id="shape18-76" v:mID="18" v:groupContext="shape" v:layerMember="0" transform="translate(414,-99)">
					<title>Dynamic connector.18</title>
					<path d="M0 612 L0 675 L-73.96 675" class="st6"/>
				</g>
				<g id="shape19-81" v:mID="19" v:groupContext="shape" v:layerMember="0" transform="translate(360,-126)">
					<title>Dynamic connector.19</title>
					<path d="M0 603 L-19.96 603" class="st6"/>
				</g>
				<g id="shape20-86" v:mID="20" v:groupContext="shape" v:layerMember="0" transform="translate(225,-126)">
					<title>Dynamic connector.20</title>
					<path d="M0 603 L-19.96 603" class="st6"/>
				</g>
				<g id="shape22-91" v:mID="22" v:groupContext="shape" v:layerMember="0" transform="translate(540,-198)">
					<title>Dynamic connector.22</title>
					<path d="M9 612 L9 631.96" class="st6"/>
				</g>
			</g>
		</g>
	</g>
</svg>
